<svg id="cloudstate-logo" xmlns="http://www.w3.org/2000/svg" viewBox="0 0 212 212"><title>cloudstate-icon-flush-reverse</title><g id="icon"><path d="M105,144.18l4.06,2a62.28,62.28,0,0,1,34.44,55.7h0L105,182.67Z" fill="#fff" opacity="0.5"/><path d="M66.53,201.91,105,182.67V144.18l-4.07,2a62.29,62.29,0,0,0-34.44,55.7Z" fill="#fff" opacity="0.8"/><path d="M143.54,201.91h0L105,182.67,66.53,201.91h0A86.1,86.1,0,0,0,143.54,201.91Z" fill="#fff"/><path d="M107,67.82l-4.06-2a62.28,62.28,0,0,1-34.44-55.7h0L107,29.33Z" fill="#fff" opacity="0.5"/><path d="M145.47,10.09,107,29.33V67.82l4.07-2a62.29,62.29,0,0,0,34.44-55.7Z" fill="#fff" opacity="0.8"/><path d="M68.46,10.09h0L107,29.33l38.51-19.24h0A86.1,86.1,0,0,0,68.46,10.09Z" fill="#fff"/><path d="M71.24,87.33l-3.8,2.5A62.33,62.33,0,0,1,2,91.79H2L37.89,68.08Z" fill="#fff" opacity="0.5"/><path d="M40.47,25.13l-2.58,43L71.24,87.33l.27-4.54a62.28,62.28,0,0,0-31-57.66Z" fill="#fff" opacity="0.8"/><path d="M2,91.79H2L37.89,68.08l2.58-42.95h0A86.05,86.05,0,0,0,2,91.79Z" fill="#fff"/><path d="M140.76,124.67l3.8-2.5a62.33,62.33,0,0,1,65.48-2h0l-35.93,23.71Z" fill="#fff" opacity="0.5"/><path d="M171.53,186.87l2.58-43-33.35-19.25-.27,4.54a62.28,62.28,0,0,0,31,57.66Z" fill="#fff" opacity="0.8"/><path d="M210,120.21h0l-35.93,23.71-2.58,43h0A86.05,86.05,0,0,0,210,120.21Z" fill="#fff"/><path d="M70.27,123l.27,4.53a62.27,62.27,0,0,1-31,57.67h0l-2.58-43Z" fill="#fff" opacity="0.5"/><path d="M1,118.54l35.93,23.71L70.27,123l-3.79-2.5a62.33,62.33,0,0,0-65.48-2Z" fill="#fff" opacity="0.8"/><path d="M39.51,185.21h0l-2.58-43L1,118.54H1A86.06,86.06,0,0,0,39.51,185.21Z" fill="#fff"/><path d="M141.73,89l-.27-4.53a62.27,62.27,0,0,1,31-57.67h0l2.58,43Z" fill="#fff" opacity="0.5"/><path d="M211,93.46,175.07,69.75,141.73,89l3.79,2.5a62.33,62.33,0,0,0,65.48,2Z" fill="#fff" opacity="0.8"/><path d="M172.49,26.79h0l2.58,43L211,93.46h0A86.06,86.06,0,0,0,172.49,26.79Z" fill="#fff"/></g></svg>