<svg xmlns="http://www.w3.org/2000/svg" viewBox="0 0 330 90"><title>cloudstate-horizontal-white</title><g id="Layer_1" data-name="Layer 1"><g id="text"><path d="M125.3,52.93a12.46,12.46,0,0,1-9.45,4.45A11.83,11.83,0,0,1,104,45.23a11.86,11.86,0,0,1,11.9-12.15,12.38,12.38,0,0,1,9.2,4.15l-2.85,2.55a8.54,8.54,0,0,0-6.35-2.8c-4.65,0-7.7,3.7-7.7,8.25s3,8.25,7.7,8.25a8.48,8.48,0,0,0,6.75-3.3Z" fill="#fff"/><path d="M128.24,26h4.2V56.78h-4.2Z" fill="#fff"/><path d="M160,45.23a11.9,11.9,0,1,1-23.8,0,11.9,11.9,0,1,1,23.8,0Zm-4.2,0c0-4.55-3.05-8.25-7.7-8.25s-7.7,3.7-7.7,8.25,3,8.25,7.7,8.25S155.8,49.78,155.8,45.23Z" fill="#fff"/><path d="M162.8,48.53V33.68H167V47.83c0,4,2.45,5.65,5.55,5.65,3.9,0,5.75-3.8,5.75-3.8v-16h4.2v23.1h-3.9V53.23a8.19,8.19,0,0,1-7.1,4.15A8.41,8.41,0,0,1,162.8,48.53Z" fill="#fff"/><path d="M204,36.53V26h4.2V56.78H204.3V53.43a9,9,0,0,1-7.8,4c-6.25,0-11.2-5.35-11.2-12.15s4.95-12.15,11.2-12.15A9.18,9.18,0,0,1,204,36.53ZM204,41a8.2,8.2,0,0,0-6.8-4c-4.6,0-7.65,3.7-7.65,8.25s2.95,8.25,7.65,8.25a8.2,8.2,0,0,0,6.8-4Z" fill="#fff"/><path d="M218.1,48.73s3.15,3.4,7.15,3.4c2.45,0,4.5-.7,4.5-2.15s-1.1-1.85-4.7-2.6c-4.7-1-8.8-3-8.8-7.5,0-3.7,3.7-7.4,10.2-7.4a15.13,15.13,0,0,1,8.9,2.9l-3,4.4a11,11,0,0,0-5.9-2.05c-2.25,0-4.3.8-4.3,2.25s1.6,1.8,5.6,2.65c4.7,1,8.05,2.55,8.05,7.45,0,4.05-4.3,7.3-10.35,7.3a14.78,14.78,0,0,1-10.7-4.3Z" fill="#fff"/><path d="M236.5,33.08h4.65V26h6v7h7.15v5.4h-7.15V48c0,2.9,1.5,3.75,3.1,3.75a4.75,4.75,0,0,0,2.5-.85l2.2,4.9a10.79,10.79,0,0,1-5.7,1.55c-4.6,0-8.1-3.35-8.1-8.4V38.48H236.5Z" fill="#fff"/><path d="M278,41.33V56.78h-5.55v-3a9.59,9.59,0,0,1-7.8,3.6c-4.45,0-8.55-2.9-8.55-8,0-4.55,4.15-7.85,9.3-7.85a11.52,11.52,0,0,1,6.6,1.7V41.93c0-3.1-3-4.1-5.1-4.1a19.24,19.24,0,0,0-7.1,1.75l-1.95-4.95a24,24,0,0,1,9.35-2.15C274,32.48,278,35.93,278,41.33Zm-6,8.3V47.18a12,12,0,0,0-5.4-1.2c-1.85,0-4.4.8-4.4,3.35s2.45,3.05,4.3,3.05A7,7,0,0,0,272,49.63Z" fill="#fff"/><path d="M279.1,33.08h4.65V26h6v7h7.15v5.4h-7.15V48c0,2.9,1.5,3.75,3.1,3.75a4.75,4.75,0,0,0,2.5-.85l2.2,4.9a10.79,10.79,0,0,1-5.7,1.55c-4.6,0-8.1-3.35-8.1-8.4V38.48H279.1Z" fill="#fff"/><path d="M322.05,44.83c0,.45,0,1.35-.05,2.25H304.3a6.76,6.76,0,0,0,6.65,4.8,9.54,9.54,0,0,0,6.5-2.4l3,4.5a15.18,15.18,0,0,1-9.5,3.4A12.46,12.46,0,0,1,298.2,44.93c0-7,5.05-12.45,11.9-12.45A11.92,11.92,0,0,1,322.05,44.83Zm-6-2.1c-.1-2-2-4.8-5.95-4.8a5.45,5.45,0,0,0-5.8,4.8Z" fill="#fff"/></g><g id="icon"><path d="M41.21,66.44a6,6,0,0,1,1.53-4h0a4,4,0,0,1-1.53-3.13V52.44a6,6,0,0,1,1.53-4h0a4,4,0,0,1-1.53-3.13V37.15a4,4,0,0,1,1.11-2.75,15.7,15.7,0,0,0-9-2.88,15.54,15.54,0,0,0-14.36,9.29l-.25.57-.62,0a13.92,13.92,0,0,0,.64,27.83H41.21Z" fill="#fff"/><path d="M87.34,30.54v-.17a20.75,20.75,0,0,0-40.56-6.15A13.06,13.06,0,0,0,39.43,22a13.35,13.35,0,0,0-12.51,8.75,17.64,17.64,0,0,1,17.19,2.52c4-1.81,10.6-3,18.1-3,8,0,15,1.35,18.86,3.37a4,4,0,0,1,2.14,3.55v8.16a4,4,0,0,1-1.52,3.13,6,6,0,0,1,1.52,4v6.87a4,4,0,0,1-.35,1.61,15.8,15.8,0,0,0,4.48-30.38Z" fill="#fff"/><path d="M42.74,62.44a6,6,0,0,0-1.53,4v6.87a4,4,0,0,0,2.15,3.54c3.86,2,10.86,3.38,18.85,3.38s15-1.36,18.86-3.38a4,4,0,0,0,2.14-3.54V66.44a6,6,0,0,0-1.52-4" fill="none" stroke="#fff" stroke-linejoin="round" stroke-width="2"/><path d="M42.74,48.44a6,6,0,0,0-1.53,4v6.87a4,4,0,0,0,2.15,3.54c3.86,2,10.86,3.38,18.85,3.38s15-1.36,18.86-3.38a4,4,0,0,0,2.14-3.54V52.44a6,6,0,0,0-1.52-4" fill="none" stroke="#fff" stroke-linejoin="round" stroke-width="2"/><path d="M83.21,37.15a4,4,0,0,0-2.14-3.55c-3.86-2-10.86-3.37-18.86-3.37s-15,1.35-18.85,3.37a4,4,0,0,0-2.15,3.55v8.16a4,4,0,0,0,2.15,3.54c3.86,2,10.86,3.38,18.85,3.38s15-1.36,18.86-3.38a4,4,0,0,0,2.14-3.54Z" fill="none" stroke="#fff" stroke-linejoin="round" stroke-width="2"/><path d="M77.21,36.23a58.4,58.4,0,0,1-15,2,58.5,58.5,0,0,1-15-2" fill="none" stroke="#fff" stroke-linecap="round" stroke-linejoin="round" stroke-width="2"/></g></g></svg>