<svg id="cloudstate-logo" xmlns="http://www.w3.org/2000/svg" viewBox="0 0 464 296"><title>cloudstate-stacked-reverse</title><g id="cloudstate"><path d="M50.55,247.74,43,255.6A17.28,17.28,0,0,0,29.94,250a15.39,15.39,0,0,0-11.32,4.59,17.05,17.05,0,0,0,0,23A15.38,15.38,0,0,0,30,282.22,17.3,17.3,0,0,0,43,276.61l7.55,7.85A26.93,26.93,0,0,1,30,293.34a27.57,27.57,0,0,1-19.89-7.75,27.45,27.45,0,0,1,0-38.86,27.58,27.58,0,0,1,19.88-7.86A27,27,0,0,1,50.55,247.74Z" fill="#fff"/><path d="M53.2,220.82H65.44v54.26c0,5,1.63,7.14,6.12,7.14a13.25,13.25,0,0,0,3.67-.4v10.91a22,22,0,0,1-5.82.61c-10.81,0-16.22-5.5-16.22-16.62Z" fill="#fff"/><path d="M74.42,266.2a26,26,0,0,1,8.15-19.38A27.66,27.66,0,0,1,102.46,239a27.58,27.58,0,0,1,19.89,7.85,27.09,27.09,0,0,1,0,38.75,27.62,27.62,0,0,1-19.89,7.86,27.62,27.62,0,0,1-19.89-7.85A25.94,25.94,0,0,1,74.42,266.2Zm39.37,11.52a15.83,15.83,0,0,0,4.59-11.52,15.47,15.47,0,0,0-4.59-11.43,16.13,16.13,0,0,0-22.75,0,15.76,15.76,0,0,0-4.49,11.42A16.16,16.16,0,0,0,91,277.72a16.39,16.39,0,0,0,22.75,0Z" fill="#fff"/><path d="M133.88,240.49h12.24v30.09c0,7,3.78,11.42,10.41,11.42s11.21-4.9,11.21-11.93V240.49H180v35.8c0,4.38,1,5.91,3.78,5.91.71,0,1.63-.1,2.55-.2v10a17.72,17.72,0,0,1-6,.82,13,13,0,0,1-7.55-2,9.59,9.59,0,0,1-3.67-5.4c-3,5-8.16,7.54-15.6,7.54-12.24,0-19.59-7.85-19.59-20.6Z" fill="#fff"/><path d="M228.12,247.93V228.8h12.24v47.59c0,4.39,1,6,3.78,6a23.54,23.54,0,0,0,2.55-.21v9.9a17.76,17.76,0,0,1-6,.81,13.3,13.3,0,0,1-7.14-1.63,9.47,9.47,0,0,1-4.18-6.22c-3.57,5.41-9.48,8.06-17.64,8.06a24.41,24.41,0,0,1-18.36-7.75A26.78,26.78,0,0,1,186,266.19c0-7.65,2.45-14,7.34-19.08a24.44,24.44,0,0,1,18.36-7.75C220,239.36,226.18,243,228.12,247.93Zm-3.67,29.47a16,16,0,0,0,0-22.44,15.26,15.26,0,0,0-11.12-4.48A14.77,14.77,0,0,0,202.42,255a16.85,16.85,0,0,0,0,22.44,14.8,14.8,0,0,0,10.92,4.48A15.2,15.2,0,0,0,224.45,277.4Z" fill="#fff"/><path d="M257.09,276.18c2.35,3.67,7.35,6.42,13.57,6.42,6.42,0,9.18-2.45,9.18-5.61,0-1.73-1.23-3.16-3-4.08a26.36,26.36,0,0,0-4.8-1.94c-1.53-.51-4.59-1.42-6.32-2.14-8.26-3-12.65-7.14-12.65-14.48a13.47,13.47,0,0,1,5.2-11.22A20.57,20.57,0,0,1,271.26,239c7.25,0,12.75,2.54,16.63,7.54l-6.83,7.24c-2.25-2.85-5.61-4.28-10-4.28-3.77,0-6.22,1.84-6.22,4.59,0,1.74.92,2.65,2.35,3.57a33,33,0,0,0,4.18,1.84c1.53.41,4.38,1.42,6.42,2.14,9.49,3.36,13.78,8,13.78,15.3,0,9.48-7.14,16.32-21.12,16.32-10.3,0-17.95-4-21.21-10.4Z" fill="#fff"/><path d="M297.38,251.59H291V240.47h6.43V220.79h12.24v19.68h11.32v11.12H309.62v23c0,5.61,1.94,7.65,6.43,7.65a19.44,19.44,0,0,0,4.28-.41v10.91a28.07,28.07,0,0,1-6.32.61c-11.12,0-16.63-5.81-16.63-17.43Z" fill="#fff"/><path d="M363.06,247.91v-7.44H375.3v35.9c0,4.38,1,6,3.78,6,.71,0,1.63-.1,2.55-.2v9.89a17.72,17.72,0,0,1-6,.82,13.49,13.49,0,0,1-7.14-1.63,9.47,9.47,0,0,1-4.18-6.22c-3.57,5.4-9.48,8.06-17.64,8.06a24.41,24.41,0,0,1-18.36-7.75,26.81,26.81,0,0,1-7.35-19.18c0-7.65,2.45-14,7.34-19.07a24.44,24.44,0,0,1,18.36-7.75C354.9,239.35,361.12,243,363.06,247.91Zm-3.67,29.48a16,16,0,0,0,0-22.44,15.23,15.23,0,0,0-11.12-4.49A14.77,14.77,0,0,0,337.36,255a16.85,16.85,0,0,0,0,22.44,14.77,14.77,0,0,0,10.92,4.49A15.2,15.2,0,0,0,359.39,277.39Z" fill="#fff"/><path d="M385.91,251.58h-6.43V240.46h6.43V220.78h12.24v19.68h11.32v11.12H398.15v22.95c0,5.61,1.94,7.65,6.43,7.65a18.8,18.8,0,0,0,4.28-.41v10.91a28.6,28.6,0,0,1-6.32.62c-11.12,0-16.63-5.82-16.63-17.44Z" fill="#fff"/><path d="M409.68,266.16c0-8.16,2.55-14.68,7.54-19.68S428.75,239,436.6,239c7.45,0,13.57,2.45,18.26,7.44A25.57,25.57,0,0,1,462,264.93c0,1.53-.1,3-.2,4.29h-40c.41,8.16,6.43,13.46,15.51,13.46a19,19,0,0,0,13.87-5.91l7.34,7.14a28.5,28.5,0,0,1-21.62,9.18c-8.06,0-14.69-2.45-19.68-7.24s-7.55-11.22-7.55-19.28Zm39.88-5.51a10,10,0,0,0-3.88-7.85,13.19,13.19,0,0,0-9.08-3.37,15.81,15.81,0,0,0-9.89,3.27,11.19,11.19,0,0,0-4.59,7.95Z" fill="#fff"/></g><g id="icon"><path d="M231,145.18l4.06,2a62.28,62.28,0,0,1,34.44,55.7h0L231,183.67Z" fill="#fff" opacity="0.5"/><path d="M192.53,202.91,231,183.67V145.18l-4.07,2a62.29,62.29,0,0,0-34.44,55.7Z" fill="#fff" opacity="0.8"/><path d="M269.54,202.91h0L231,183.67l-38.51,19.24h0A86.1,86.1,0,0,0,269.54,202.91Z" fill="#fff"/><path d="M233,68.82l-4.06-2a62.28,62.28,0,0,1-34.44-55.7h0L233,30.33Z" fill="#fff" opacity="0.5"/><path d="M271.47,11.09,233,30.33V68.82l4.07-2a62.29,62.29,0,0,0,34.44-55.7Z" fill="#fff" opacity="0.8"/><path d="M194.46,11.09h0L233,30.33l38.51-19.24h0A86.1,86.1,0,0,0,194.46,11.09Z" fill="#fff"/><path d="M197.24,88.33l-3.8,2.5a62.33,62.33,0,0,1-65.48,2h0l35.93-23.71Z" fill="#fff" opacity="0.5"/><path d="M166.47,26.13l-2.58,43,33.35,19.25.27-4.54a62.28,62.28,0,0,0-31-57.66Z" fill="#fff" opacity="0.8"/><path d="M128,92.79h0l35.93-23.71,2.58-42.95h0A86.05,86.05,0,0,0,128,92.79Z" fill="#fff"/><path d="M266.76,125.67l3.8-2.5a62.33,62.33,0,0,1,65.48-2h0l-35.93,23.71Z" fill="#fff" opacity="0.5"/><path d="M297.53,187.87l2.58-43-33.35-19.25-.27,4.54a62.28,62.28,0,0,0,31,57.66Z" fill="#fff" opacity="0.8"/><path d="M336,121.21h0l-35.93,23.71-2.58,43h0A86.05,86.05,0,0,0,336,121.21Z" fill="#fff"/><path d="M196.27,124l.27,4.53a62.27,62.27,0,0,1-31,57.67h0l-2.58-43Z" fill="#fff" opacity="0.5"/><path d="M127,119.54l35.93,23.71L196.27,124l-3.79-2.5a62.33,62.33,0,0,0-65.48-2Z" fill="#fff" opacity="0.8"/><path d="M165.51,186.21h0l-2.58-43L127,119.54h0A86.06,86.06,0,0,0,165.51,186.21Z" fill="#fff"/><path d="M267.73,90l-.27-4.53a62.27,62.27,0,0,1,31-57.67h0l2.58,43Z" fill="#fff" opacity="0.5"/><path d="M337,94.46,301.07,70.75,267.73,90l3.79,2.5a62.33,62.33,0,0,0,65.48,2Z" fill="#fff" opacity="0.8"/><path d="M298.49,27.79h0l2.58,43L337,94.46h0A86.06,86.06,0,0,0,298.49,27.79Z" fill="#fff"/></g></svg>