<svg id="cloudstate-logo" xmlns="http://www.w3.org/2000/svg" viewBox="0 0 1006 212"><title>cloudstate-full-color</title><g id="cloudstate"><path d="M330.6,77.37,318.31,90.15A28.14,28.14,0,0,0,297.07,81a25,25,0,0,0-18.43,7.48,26.06,26.06,0,0,0-7.3,18.75A26,26,0,0,0,278.65,126a25,25,0,0,0,18.42,7.47,28.16,28.16,0,0,0,21.25-9.13l12.28,12.78c-9,9.63-20.08,14.44-33.53,14.44-12.78,0-23.57-4.14-32.37-12.61s-13.11-19.09-13.12-31.7,4.32-23.08,13.12-31.55,19.58-12.78,32.36-12.78C310.51,62.93,321.63,67.74,330.6,77.37Z" fill="#0b5567"/><path d="M334.91,33.54h19.92v88.31c0,8.14,2.66,11.62,10,11.62a21.18,21.18,0,0,0,6-.66v17.76a35.9,35.9,0,0,1-9.46,1c-17.6,0-26.4-9-26.4-27.06Z" fill="#0b5567"/><path d="M369.45,107.41a42.22,42.22,0,0,1,13.27-31.54c8.8-8.47,19.59-12.79,32.37-12.79s23.57,4.32,32.37,12.78a42.25,42.25,0,0,1,13.29,31.54,42.24,42.24,0,0,1-13.28,31.54c-8.8,8.47-19.59,12.79-32.37,12.79s-23.57-4.32-32.37-12.78A42.24,42.24,0,0,1,369.45,107.41Zm64.07,18.75A25.8,25.8,0,0,0,441,107.4a25.14,25.14,0,0,0-7.47-18.59,26.27,26.27,0,0,0-37,0,25.7,25.7,0,0,0-7.3,18.6,26.29,26.29,0,0,0,7.31,18.75,26.66,26.66,0,0,0,37,0Z" fill="#0b5567"/><path d="M466.22,65.57h19.92v49c0,11.46,6.14,18.6,16.93,18.59,10.63,0,18.26-8,18.26-19.42V65.56h19.92v58.26c0,7.14,1.66,9.63,6.14,9.63a40,40,0,0,0,4.15-.33v16.27a28.82,28.82,0,0,1-9.8,1.33c-5.14,0-9.13-1.16-12.28-3.32a15.61,15.61,0,0,1-6-8.8c-4.81,8.13-13.28,12.29-25.4,12.29-19.92,0-31.87-12.78-31.87-33.53Z" fill="#0b5567"/><path d="M619.61,77.67V33.51h19.92V124c0,7.14,1.66,9.79,6.15,9.79a40.4,40.4,0,0,0,4.15-.33v16.1a28.82,28.82,0,0,1-9.8,1.33c-4.81,0-8.63-.83-11.62-2.65a15.39,15.39,0,0,1-6.8-10.13c-5.81,8.8-15.44,13.12-28.72,13.12A39.77,39.77,0,0,1,563,138.6c-8-8.47-12-18.76-12-31.21s4-22.74,12-31a39.74,39.74,0,0,1,29.88-12.62C606.33,63.73,616.45,69.7,619.61,77.67Zm-6,48a24.39,24.39,0,0,0,7.47-18.26,24.47,24.47,0,0,0-7.48-18.26,24.78,24.78,0,0,0-18.09-7.3,24,24,0,0,0-17.76,7.31c-4.65,4.81-7,11-7,18.26s2.32,13.44,7,18.26a24.07,24.07,0,0,0,17.76,7.3A24.79,24.79,0,0,0,613.64,125.64Z" fill="#0b5567"/><path d="M666.76,123.64c3.82,6,12,10.46,22.08,10.46,10.46,0,14.94-4,14.94-9.13,0-2.82-2-5.15-4.82-6.64a42.38,42.38,0,0,0-7.8-3.15c-2.49-.83-7.47-2.33-10.29-3.49-13.45-4.81-20.59-11.62-20.59-23.57,0-7.8,2.82-13.78,8.47-18.26s12.78-6.81,21.08-6.81c11.78,0,20.75,4.15,27.06,12.28L705.76,87.12c-3.65-4.65-9.13-7-16.26-7-6.15,0-10.13,3-10.13,7.47,0,2.82,1.49,4.32,3.82,5.81a55,55,0,0,0,6.81,3c2.49.66,7.13,2.32,10.45,3.48,15.44,5.48,22.42,12.95,22.42,24.9,0,15.44-11.62,26.56-34.36,26.56-16.77,0-29.22-6.47-34.53-16.92Z" fill="#0b5567"/><path d="M732.33,83.63H721.87V65.54h10.45v-32h19.92v32h18.43v18.1H752.25V121c0,9.13,3.16,12.45,10.46,12.45a31,31,0,0,0,7-.67v17.77a46.17,46.17,0,0,1-10.29,1c-18.09,0-27.06-9.46-27.06-28.38Z" fill="#0b5567"/><path d="M839.23,77.64V65.53h19.92V124c0,7.13,1.66,9.79,6.14,9.79,1.16,0,2.66-.17,4.15-.33v16.1a28.8,28.8,0,0,1-9.79,1.33c-4.82,0-8.64-.83-11.62-2.66a15.37,15.37,0,0,1-6.81-10.12c-5.81,8.8-15.44,13.11-28.72,13.11a39.72,39.72,0,0,1-29.88-12.61c-8-8.46-12-18.75-12-31.2s4-22.75,11.94-31.05A39.77,39.77,0,0,1,812.5,63.7C826,63.7,836.08,69.68,839.23,77.64Zm-6,48a24.42,24.42,0,0,0,7.47-18.26,24.39,24.39,0,0,0-7.47-18.26,24.78,24.78,0,0,0-18.1-7.3,24,24,0,0,0-17.76,7.3c-4.65,4.82-7,11-7,18.26s2.33,13.45,7,18.26a24,24,0,0,0,17.77,7.3A24.8,24.8,0,0,0,833.26,125.62Z" fill="#0b5567"/><path d="M876.42,83.62H866V65.52h10.45v-32h19.92v32h18.43V83.61H896.34V121c0,9.13,3.16,12.45,10.46,12.45a31,31,0,0,0,7-.66v17.76a46.12,46.12,0,0,1-10.29,1c-18.09,0-27.06-9.46-27.06-28.39Z" fill="#0b5567"/><path d="M915.1,107.35c0-13.28,4.15-23.91,12.28-32,8.3-8.14,18.76-12.12,31.54-12.12,12.12,0,22.08,4,29.71,12.11,7.81,8.14,11.62,18.1,11.63,30.05,0,2.49-.17,4.81-.34,7H934.85c.67,13.28,10.46,21.91,25.24,21.91,8.63,0,16.1-3.16,22.57-9.63l12,11.61c-9.47,10-21.08,14.95-35.19,14.95-13.12,0-23.91-4-32-11.78S915.1,121.13,915.1,108Zm64.9-9c0-5-2.16-9.3-6.31-12.78a21.43,21.43,0,0,0-14.77-5.48,25.75,25.75,0,0,0-16.1,5.31,18.23,18.23,0,0,0-7.47,12.95Z" fill="#0b5567"/></g><g id="icon"><path d="M105,144.18l4.06,2a62.28,62.28,0,0,1,34.44,55.7h0L105,182.67Z" fill="#107f9b"/><path d="M66.53,201.91,105,182.67V144.18l-4.07,2a62.29,62.29,0,0,0-34.44,55.7Z" fill="#15a9ce"/><path d="M143.54,201.91h0L105,182.67,66.53,201.91h0A86.1,86.1,0,0,0,143.54,201.91Z" fill="#0b5567"/><path d="M107,67.82l-4.06-2a62.28,62.28,0,0,1-34.44-55.7h0L107,29.33Z" fill="#107f9b"/><path d="M145.47,10.09,107,29.33V67.82l4.07-2a62.29,62.29,0,0,0,34.44-55.7Z" fill="#15a9ce"/><path d="M68.46,10.09h0L107,29.33l38.51-19.24h0A86.1,86.1,0,0,0,68.46,10.09Z" fill="#0b5567"/><path d="M71.24,87.33l-3.8,2.5A62.33,62.33,0,0,1,2,91.79H2L37.89,68.08Z" fill="#107f9b"/><path d="M40.47,25.13l-2.58,43L71.24,87.33l.27-4.54a62.28,62.28,0,0,0-31-57.66Z" fill="#15a9ce"/><path d="M2,91.79H2L37.89,68.08l2.58-42.95h0A86.05,86.05,0,0,0,2,91.79Z" fill="#0b5567"/><path d="M140.76,124.67l3.8-2.5a62.33,62.33,0,0,1,65.48-2h0l-35.93,23.71Z" fill="#107f9b"/><path d="M171.53,186.87l2.58-43-33.35-19.25-.27,4.54a62.28,62.28,0,0,0,31,57.66Z" fill="#15a9ce"/><path d="M210,120.21h0l-35.93,23.71-2.58,43h0A86.05,86.05,0,0,0,210,120.21Z" fill="#0b5567"/><path d="M70.27,123l.27,4.53a62.27,62.27,0,0,1-31,57.67h0l-2.58-43Z" fill="#107f9b"/><path d="M1,118.54l35.93,23.71L70.27,123l-3.79-2.5a62.33,62.33,0,0,0-65.48-2Z" fill="#15a9ce"/><path d="M39.51,185.21h0l-2.58-43L1,118.54H1A86.06,86.06,0,0,0,39.51,185.21Z" fill="#0b5567"/><path d="M141.73,89l-.27-4.53a62.27,62.27,0,0,1,31-57.67h0l2.58,43Z" fill="#107f9b"/><path d="M211,93.46,175.07,69.75,141.73,89l3.79,2.5a62.33,62.33,0,0,0,65.48,2Z" fill="#15a9ce"/><path d="M172.49,26.79h0l2.58,43L211,93.46h0A86.06,86.06,0,0,0,172.49,26.79Z" fill="#0b5567"/></g></svg>