<svg id="Layer_1" data-name="Layer 1" xmlns="http://www.w3.org/2000/svg" viewBox="0 0 658 270"><title>akka</title><g id="akka-streams-reverse"><path d="M392.66,252.93v-46.7h5v5c1.94-3.42,5.89-6,12-6a16.24,16.24,0,0,1,12.13,5.16,18.89,18.89,0,0,1,0,25.52,16.19,16.19,0,0,1-12.13,5.1c-6.1,0-10.05-2.62-12-6v18Zm25.59-20.3a13.44,13.44,0,0,0,3.49-9.51,13.16,13.16,0,0,0-3.49-9.45,11.07,11.07,0,0,0-8.64-3.82,11.91,11.91,0,0,0-9,3.82,13.21,13.21,0,0,0-3.56,9.45,13.49,13.49,0,0,0,3.56,9.51,12.11,12.11,0,0,0,9,3.75A11.24,11.24,0,0,0,418.25,232.63Z" fill="#fff"/><path d="M431.59,193.3h5v37.86c0,3.75,1.08,5.22,4.23,5.22a19.51,19.51,0,0,0,2.41-.13v4.22a7,7,0,0,1-3.09.54,9.71,9.71,0,0,1-5.49-1.48c-1.88-1.14-3-3.95-3-8Z" fill="#fff"/><path d="M474.87,211.26v-5h5v26.2c0,2.95.67,4.22,2.54,4.22.54,0,1.14-.07,1.74-.13v3.75a8.37,8.37,0,0,1-3.14.53,6.26,6.26,0,0,1-3.56-.93,6.65,6.65,0,0,1-2.27-4.83c-2.55,4-6.64,6-12.26,6a16.19,16.19,0,0,1-12.13-5.1,18.89,18.89,0,0,1,0-25.52,16.24,16.24,0,0,1,12.13-5.16C469,205.23,472.93,207.84,474.87,211.26Zm-3,21.37a13.24,13.24,0,0,0,3.62-9.51,13,13,0,0,0-3.62-9.45,11.67,11.67,0,0,0-9-3.82,11.3,11.3,0,0,0-8.71,3.82,13.42,13.42,0,0,0-3.42,9.45,13.71,13.71,0,0,0,3.42,9.51,11.48,11.48,0,0,0,8.71,3.75A11.86,11.86,0,0,0,471.85,232.63Z" fill="#fff"/><path d="M489.21,210.85h-4v-4.62h4V193.3h5v12.93H502v4.62h-7.84v19.7c0,4.29,1.41,5.83,4.69,5.83a21.16,21.16,0,0,0,3.15-.2v4.29a9.9,9.9,0,0,1-3.75.54q-9,0-9-10.46Z" fill="#fff"/><path d="M511.38,240V210.85H506v-4.62h5.42v-2.81c0-4.36,1.07-7.37,3.29-9.18,1.47-1.27,3.75-2,6.9-2a10.16,10.16,0,0,1,2.61.27v4.69a13.83,13.83,0,0,0-3.15-.33c-3.28,0-4.69,1.61-4.69,5.83v3.48h6.37v4.62h-6.37V240Z" fill="#fff"/><path d="M523.84,223.12a17.07,17.07,0,0,1,5.23-12.73,18.28,18.28,0,0,1,25.46,0,18.18,18.18,0,0,1,0,25.52,18.44,18.44,0,0,1-25.46,0A17.22,17.22,0,0,1,523.84,223.12Zm5,0a13,13,0,0,0,3.69,9.51,13.43,13.43,0,0,0,18.62,0,13,13,0,0,0,3.69-9.51,12.78,12.78,0,0,0-3.69-9.45,13.26,13.26,0,0,0-18.62,0A12.78,12.78,0,0,0,528.8,223.12Z" fill="#fff"/><path d="M563.24,240V206.23h5v5.7a11,11,0,0,1,10.38-6.23,18.39,18.39,0,0,1,2.08.13v5.36a15.23,15.23,0,0,0-3.35-.34c-5.29,0-9.11,3.89-9.11,9.52V240Z" fill="#fff"/><path d="M584.75,240V206.23h5v5.7a10,10,0,0,1,9.52-6.23c4.82,0,8.1,2.21,9.91,6.7,2-4.49,5.5-6.7,10.52-6.7,6.77,0,11,5,11,12.73v13.93c0,2.68.47,3.55,2.35,3.55a11.09,11.09,0,0,0,1.27-.13v4.09a6.28,6.28,0,0,1-2.14.33c-2.62,0-6.44-.74-6.44-7.5V219.5c0-5.63-2.81-9.18-7.37-9.18s-8,3.88-8,9.51V240h-5V219.5c0-5.7-2.74-9.18-7.5-9.18s-8.11,3.88-8.11,9.51V240Z" fill="#fff"/><g id="akka"><path d="M349.64,105.46V93.34h19.92v58.44c0,7.13,1.66,9.79,6.14,9.79,1.17,0,2.66-.17,4.15-.33v16.1a28.71,28.71,0,0,1-9.79,1.33c-4.81,0-8.63-.83-11.62-2.66a15.41,15.41,0,0,1-6.81-10.12C345.82,174.68,336.2,179,322.92,179A39.74,39.74,0,0,1,293,166.38c-8-8.46-12-18.75-12-31.2s4-22.75,12-31.05a39.77,39.77,0,0,1,29.88-12.61C336.36,91.52,346.49,97.49,349.64,105.46Zm-6,48a24.42,24.42,0,0,0,7.47-18.26,24.39,24.39,0,0,0-7.47-18.26,24.79,24.79,0,0,0-18.1-7.31,24,24,0,0,0-17.76,7.31c-4.65,4.81-7,11-7,18.26s2.32,13.44,7,18.26a24,24,0,0,0,17.76,7.3A24.82,24.82,0,0,0,343.67,153.44Z" fill="#fff"/><path d="M388.48,177V61.31h19.76v67.56l30.87-35.53H462l-32.7,37.35L465.51,177H442.93l-26.39-33.7-8.3,9.3V177Z" fill="#fff"/><path d="M470.82,177V61.31h19.75v67.56l30.88-35.53h22.91l-32.7,37.35L547.84,177H525.27l-26.4-33.7-8.3,9.3V177Z" fill="#fff"/><path d="M607.87,105.46V93.34h19.92v58.44c0,7.13,1.66,9.79,6.14,9.79,1.17,0,2.66-.17,4.15-.33v16.1a28.71,28.71,0,0,1-9.79,1.33c-4.81,0-8.63-.83-11.62-2.66a15.41,15.41,0,0,1-6.81-10.12c-5.81,8.79-15.43,13.11-28.71,13.11a39.74,39.74,0,0,1-29.88-12.62c-8-8.46-12-18.75-12-31.2s4-22.75,12-31.05a39.77,39.77,0,0,1,29.88-12.61C594.59,91.52,604.72,97.49,607.87,105.46Zm-6,48a24.42,24.42,0,0,0,7.47-18.26,24.39,24.39,0,0,0-7.47-18.26,24.79,24.79,0,0,0-18.1-7.31A24,24,0,0,0,566,116.92c-4.65,4.81-7,11-7,18.26s2.32,13.44,7,18.26a24,24,0,0,0,17.76,7.3A24.82,24.82,0,0,0,601.9,153.44Z" fill="#fff"/></g><g id="icon"><path d="M230.26,212.82c35.88,28.67,58.91-57,1.74-72.82-48-13.29-96.33,9.5-144.66,62.74C87.34,202.74,176.67,170,230.26,212.82Z" fill="#fff" opacity="0.5"/><path d="M88.08,202c34.41-35.69,91.64-75.53,144.9-60.75A46.09,46.09,0,0,1,259.9,160.6L209.48,58.78c-7.2-11.46-25.58-9.15-35.95-.26L40.29,170.07a27.4,27.4,0,0,0-1.56,40.15l0,0a27.4,27.4,0,0,0,36.51,2L88.14,202Z" fill="#fff"/></g></g></svg>