<svg id="Layer_1" data-name="Layer 1" xmlns="http://www.w3.org/2000/svg" viewBox="0 0 1006 180"><defs><style>.cls-1,.cls-2{fill:#0b5567;}.cls-2,.cls-3{fill-rule:evenodd;}.cls-3{fill:#15a9ce;}</style></defs><title>cloudflow-full-color</title><path class="cls-1" d="M380.88,70.56,368.59,83.34a28.16,28.16,0,0,0-21.25-9.13,25,25,0,0,0-18.42,7.48,26.06,26.06,0,0,0-7.3,18.75,26.06,26.06,0,0,0,7.3,18.76,25.05,25.05,0,0,0,18.43,7.47,28.16,28.16,0,0,0,21.25-9.13l12.28,12.78c-9,9.63-20.08,14.44-33.53,14.44-12.78,0-23.57-4.14-32.37-12.61s-13.12-19.09-13.12-31.7S306.18,77.37,315,68.91s19.59-12.79,32.37-12.79C360.79,56.12,371.91,60.93,380.88,70.56Z"/><path class="cls-1" d="M386.19,26.73h19.92V115c0,8.14,2.65,11.62,10,11.62a21.11,21.11,0,0,0,6-.66v17.76a36,36,0,0,1-9.47,1c-17.59,0-26.39-9-26.39-27.06Z"/><path class="cls-1" d="M420.72,100.6A42.24,42.24,0,0,1,434,69.06c8.8-8.47,19.59-12.79,32.37-12.79s23.57,4.32,32.37,12.78A42.24,42.24,0,0,1,512,100.59a42.22,42.22,0,0,1-13.27,31.54c-8.8,8.47-19.59,12.79-32.37,12.79S442.81,140.6,434,132.14A42.29,42.29,0,0,1,420.72,100.6Zm64.08,18.75a25.8,25.8,0,0,0,7.47-18.76A25.14,25.14,0,0,0,484.8,82a26.27,26.27,0,0,0-37,0,25.72,25.72,0,0,0-7.3,18.6,26.32,26.32,0,0,0,7.3,18.75,26.67,26.67,0,0,0,37,0Z"/><path class="cls-1" d="M517.5,58.76h19.92v49c0,11.45,6.14,18.59,16.93,18.59,10.62,0,18.26-8,18.26-19.43V58.75h19.92V117c0,7.13,1.66,9.62,6.14,9.62a40.19,40.19,0,0,0,4.15-.33v16.27a28.71,28.71,0,0,1-9.79,1.33c-5.15,0-9.13-1.16-12.29-3.32a15.64,15.64,0,0,1-6-8.8c-4.82,8.14-13.28,12.29-25.4,12.29-19.92,0-31.87-12.78-31.87-33.53Z"/><path class="cls-1" d="M670.88,70.86V26.7H690.8v90.47c0,7.14,1.66,9.79,6.14,9.79a40,40,0,0,0,4.15-.33v16.1a28.71,28.71,0,0,1-9.79,1.33c-4.81,0-8.63-.83-11.62-2.65a15.41,15.41,0,0,1-6.81-10.13c-5.81,8.8-15.43,13.12-28.71,13.12a39.77,39.77,0,0,1-29.88-12.61c-8-8.47-12-18.76-12-31.21s4-22.74,11.95-31a39.74,39.74,0,0,1,29.88-12.62C657.6,56.92,667.73,62.89,670.88,70.86Zm-6,48a24.39,24.39,0,0,0,7.47-18.26,24.42,24.42,0,0,0-7.47-18.26A24.8,24.8,0,0,0,646.82,75a24,24,0,0,0-17.77,7.31c-4.64,4.81-7,11-7,18.26s2.33,13.44,7,18.26a24,24,0,0,0,17.76,7.3A24.75,24.75,0,0,0,664.91,118.83Z"/><path class="cls-1" d="M714.39,142.4V76.83H700.77V58.74h13.62V54.59c0-12.79,2.65-19.59,9.12-24.74,4.48-3.65,11.29-5.48,20.75-5.48a45.14,45.14,0,0,1,8.63.66v17.1a26.82,26.82,0,0,0-7.64-.83c-7.47,0-11,3.32-11,11.79v5.64h15.77v18.1H734.3V142.4Z"/><path class="cls-1" d="M758.86,26.69h19.92V115c0,8.14,2.66,11.62,10,11.62a21.13,21.13,0,0,0,6-.66v17.76a35.9,35.9,0,0,1-9.46,1c-17.6,0-26.4-9-26.4-27.06Z"/><path class="cls-1" d="M793.4,100.56A42.25,42.25,0,0,1,806.67,69c8.8-8.47,19.59-12.79,32.37-12.79S862.62,60.55,871.41,69a42.25,42.25,0,0,1,13.29,31.54,42.24,42.24,0,0,1-13.28,31.54c-8.8,8.47-19.59,12.79-32.37,12.79s-23.57-4.32-32.37-12.78A42.24,42.24,0,0,1,793.4,100.56Zm64.08,18.75a25.76,25.76,0,0,0,7.46-18.76A25.14,25.14,0,0,0,857.47,82a26.27,26.27,0,0,0-37,0,25.7,25.7,0,0,0-7.3,18.6,26.29,26.29,0,0,0,7.31,18.75,26.67,26.67,0,0,0,37,0Z"/><path class="cls-1" d="M909.6,142.38,881.71,58.72h18.76l17.43,52.12,16.93-52.13h15.1l16.94,52.12L984.3,58.71h18.92l-28.05,83.67H959.74L942.47,89.42l-17.26,53Z"/><path class="cls-2" d="M281,130c-39.85-58-92.81-64.8-122-53C102.78,99.73,73.36,126.69,1,65c.23,61.77,59.27,118.7,101,112S203.15,104.19,281,130Z"/><path class="cls-3" d="M123,119c44.38-20.81,76.23-19,89-17,23,3.66,49.12,10.49,69,28-38.57-65.27-81.65-63.48-128-56C95.6,83.26,73.36,126.69,1,65,24.69,143.47,68,144.78,123,119Z"/><path class="cls-2" d="M191,56c-23.45-36.39-57.78-42.85-77-38C77,27.35,57.19,40.55,12,1,10.48,36.05,49.79,68.17,77,67,118.14,66.66,141.28,36.45,191,56Z"/><path class="cls-3" d="M90,40c29.3-9,49.78-7,58-5,14.8,3.52,30.61,9.81,43,21-23.45-36.39-46.58-44-80-41C73.93,18.31,57.19,40.55,12,1,25.21,47,53.69,51.16,90,40Z"/></svg>