<svg xmlns="http://www.w3.org/2000/svg" viewBox="0 0 372 80"><title>lightbend-reverse</title><g id="lightbend-reverse"><path d="M1,59V76a3,3,0,0,0,3,3H88a3,3,0,0,0,3-3V59a167.38,167.38,0,0,1-45,6A167.38,167.38,0,0,1,1,59Z" style="fill:#fff"/><path d="M88,1H4A3,3,0,0,0,1,4V53c14.57,4.2,29.65,7,45,7s30.43-2.8,45-7V4A3,3,0,0,0,88,1Z" style="fill:#fff"/><g id="original_weight" data-name="original weight"><path d="M107.2,20.08a2.14,2.14,0,1,1,4.27,0v32h13.6A2,2,0,0,1,127,54a1.94,1.94,0,0,1-1.94,2H109.31a2.15,2.15,0,0,1-2.11-2.16Z" style="fill:#fff"/><path d="M135,19.32a2.47,2.47,0,0,1,4.91,0V20A2.47,2.47,0,0,1,135,20Zm.38,10.59a2.08,2.08,0,1,1,4.16,0V54.15a2,2,0,0,1-2.06,2.11,2.08,2.08,0,0,1-2.1-2.11Z" style="fill:#fff"/><path d="M150.8,61.44a1.91,1.91,0,0,1-1.08-1.73,2,2,0,0,1,1.89-1.83,1.69,1.69,0,0,1,.92.27,17.63,17.63,0,0,0,9.88,3c6.15,0,10.15-3.4,10.15-9.93v-3.3c-2.43,3.24-5.83,5.89-11,5.89a12.9,12.9,0,0,1-13.12-13.07v-.11a13.21,13.21,0,0,1,24-7.56V29.91a2.07,2.07,0,0,1,2.06-2.11,2.11,2.11,0,0,1,2.1,2.11V51.13c0,4.32-1.29,7.61-3.56,9.88-2.49,2.48-6.21,3.73-10.64,3.73A21.87,21.87,0,0,1,150.8,61.44Zm21.87-20.73V40.6c0-5.72-5-9.45-10.26-9.45s-9.67,3.67-9.67,9.4v.1a9.45,9.45,0,0,0,9.67,9.51C167.7,50.16,172.67,46.32,172.67,40.71Z" style="fill:#fff"/><path d="M186.22,18.41a2.08,2.08,0,1,1,4.16,0V32.93a10.57,10.57,0,0,1,9.56-5.45c6.75,0,10.69,4.53,10.69,11.18V54.15a2.08,2.08,0,1,1-4.16,0V39.68c0-5.18-2.81-8.42-7.72-8.42s-8.37,3.51-8.37,8.75V54.15a2,2,0,0,1-2,2.11,2.08,2.08,0,0,1-2.11-2.11Z" style="fill:#fff"/><path d="M220.46,48.59V31.74h-2.27a1.89,1.89,0,0,1-1.84-1.83,1.86,1.86,0,0,1,1.84-1.84h2.27V21.48a2.06,2.06,0,0,1,2-2.1,2.14,2.14,0,0,1,2.1,2.1v6.59h7.24a1.91,1.91,0,0,1,1.89,1.84,1.86,1.86,0,0,1-1.89,1.83h-7.24V48.05c0,3.4,1.89,4.64,4.7,4.64a12,12,0,0,0,2.54-.37,1.8,1.8,0,0,1,1.78,1.78,1.73,1.73,0,0,1-1.19,1.62,10.57,10.57,0,0,1-4.1.75C223.86,56.47,220.46,54.26,220.46,48.59Z" style="fill:#fff"/><path d="M242.65,18.41a2.08,2.08,0,1,1,4.16,0V33.69c2.27-3.35,5.56-6.21,10.69-6.21,6.7,0,13.34,5.29,13.34,14.47v.11c0,9.12-6.59,14.52-13.34,14.52a12.6,12.6,0,0,1-10.69-5.94v3.51a2.07,2.07,0,0,1-2.05,2.11,2.11,2.11,0,0,1-2.11-2.11Zm23.92,23.7V42c0-6.58-4.53-10.8-9.83-10.8A10.41,10.41,0,0,0,246.65,42v.11c0,6.48,4.91,10.8,10.09,10.8C262.14,52.86,266.57,48.86,266.57,42.11Z" style="fill:#fff"/><path d="M290.17,56.64c-7.67,0-13.93-5.89-13.93-14.53V42c0-8,5.67-14.52,13.39-14.52,8.26,0,13,6.75,13,14.15a1.94,1.94,0,0,1-1.95,1.94H280.45c.59,6,4.86,9.45,9.83,9.45a11.4,11.4,0,0,0,8-3.24,1.83,1.83,0,0,1,1.19-.49,1.81,1.81,0,0,1,1.84,1.78,1.78,1.78,0,0,1-.65,1.35A14.2,14.2,0,0,1,290.17,56.64Zm8.26-16.15c-.43-5.07-3.35-9.5-8.91-9.5-4.86,0-8.53,4.05-9.07,9.5Z" style="fill:#fff"/><path d="M309.5,29.91a2.08,2.08,0,1,1,4.16,0v3a10.57,10.57,0,0,1,9.56-5.45c6.75,0,10.69,4.53,10.69,11.18V54.15a2.08,2.08,0,1,1-4.16,0V39.68c0-5.18-2.81-8.42-7.72-8.42s-8.37,3.51-8.37,8.75V54.15a2,2,0,0,1-2.05,2.11,2.08,2.08,0,0,1-2.11-2.11Z" style="fill:#fff"/><path d="M368.68,54.15a2.08,2.08,0,1,1-4.15,0V50.37c-2.27,3.35-5.57,6.21-10.7,6.21-6.69,0-13.33-5.29-13.33-14.47V42c0-9.12,6.64-14.52,13.33-14.52a12.61,12.61,0,0,1,10.7,5.94v-15a2,2,0,0,1,2.05-2.11,2.07,2.07,0,0,1,2.1,2.11ZM344.76,42v.11c0,6.58,4.59,10.8,9.83,10.8a10.43,10.43,0,0,0,10.1-10.8V42a10.38,10.38,0,0,0-10.1-10.75C349.19,31.2,344.76,35.2,344.76,42Z" style="fill:#fff"/></g></g></svg>