<svg id="Layer_1" data-name="Layer 1" xmlns="http://www.w3.org/2000/svg" viewBox="0 0 517 270"><title>play-full-color</title><path d="M36.92,26.44l6.19-6.16a23,23,0,0,1,33.68,1.3l85.77,100a23,23,0,0,1-.22,30.17l-85.5,96.91a23,23,0,0,1-33.49,1.05l-6.17-6.17a23,23,0,0,1-1.4-31l51.16-61.39a23,23,0,0,0,.29-29.08l-52-65A23,23,0,0,1,36.92,26.44Z" style="fill:#92d13d"/><path d="M86.94,151.18,35.78,212.57a23,23,0,0,0,1.4,31l6.17,6.17a23,23,0,0,0,33.49-1.05l18.51-21a101.68,101.68,0,0,0,10.89-45.91A101.62,101.62,0,0,0,90,126.54,23,23,0,0,1,86.94,151.18Z" style="fill:#49691f"/><path d="M206.64,209.51H186.72V93.81h19.92v12.12c2.82-8.13,13-13.94,26.72-13.94,11.79,0,21.75,4.15,29.72,12.61,8.13,8.3,12.12,18.59,12.12,31s-4,22.75-12.12,31.21c-8,8.3-17.93,12.45-29.72,12.45-13.77,0-23.9-5.81-26.72-13.94Zm5.81-92.13a26.46,26.46,0,0,0,0,36.52,25.42,25.42,0,0,0,18.26,7.31,23.36,23.36,0,0,0,17.59-7.31c4.82-4.81,7.14-11,7.14-18.26s-2.32-13.44-7.14-18.26a23.39,23.39,0,0,0-17.59-7.3A25.46,25.46,0,0,0,212.45,117.38Z" style="fill:#49691f"/><path d="M282,61.77h19.92v88.32c0,8.13,2.66,11.62,10,11.62a21.11,21.11,0,0,0,6-.67V178.8a35.53,35.53,0,0,1-9.46,1c-17.6,0-26.4-9-26.4-27.06Z" style="fill:#49691f"/><path d="M385.25,105.93V93.81h19.92v58.43c0,7.14,1.66,9.8,6.14,9.8,1.17,0,2.66-.17,4.16-.33v16.1a28.82,28.82,0,0,1-9.8,1.33c-4.81,0-8.63-.83-11.62-2.66a15.41,15.41,0,0,1-6.81-10.13c-5.8,8.8-15.43,13.12-28.71,13.12a39.74,39.74,0,0,1-29.88-12.62c-8-8.46-12-18.76-12-31.21s4-22.74,12-31A39.77,39.77,0,0,1,358.53,92C372,92,382.1,98,385.25,105.93Zm-6,48a24.39,24.39,0,0,0,7.47-18.26,24.42,24.42,0,0,0-7.47-18.26,24.82,24.82,0,0,0-18.1-7.3,24.05,24.05,0,0,0-17.76,7.3c-4.65,4.82-7,11-7,18.26s2.32,13.45,7,18.26a24,24,0,0,0,17.76,7.31A24.79,24.79,0,0,0,379.28,153.9Z" style="fill:#49691f"/><path d="M422.36,194.24a29.76,29.76,0,0,0,9.29,1.33,13.13,13.13,0,0,0,7.31-1.83c1.82-1.16,3.48-3.65,4.81-7.13l2.16-6-35-86.82H431l24.57,63.08,23.07-63.08h20.09L461.2,191.09q-3.74,9.71-9,14.94c-5,4.65-11.62,7-20.09,7a34.91,34.91,0,0,1-9.79-1.33Z" style="fill:#49691f"/></svg>